<?xml version="1.0" standalone="no"?>
<!DOCTYPE svg PUBLIC "-//W3C//DTD SVG 20010904//EN"
 "http://www.w3.org/TR/2001/REC-SVG-20010904/DTD/svg10.dtd">
<svg version="1.0" xmlns="http://www.w3.org/2000/svg"
 width="256.000000pt" height="256.000000pt" viewBox="0 0 256.000000 256.000000"
 preserveAspectRatio="xMidYMid meet">

<g transform="translate(0.000000,256.000000) scale(0.100000,-0.100000)"
fill="#000000" stroke="none">
<path d="M1405 1814 c-14 -15 -25 -30 -25 -35 0 -4 20 -15 45 -25 42 -16 47
-16 63 0 10 9 26 16 35 16 28 0 19 13 -27 43 -53 33 -61 34 -91 1z"/>
<path d="M1610 1726 c0 -2 8 -10 18 -17 15 -13 16 -12 3 4 -13 16 -21 21 -21
13z"/>
<path d="M1650 1698 c0 -2 33 -30 73 -62 48 -39 57 -44 27 -16 -45 42 -100 85
-100 78z"/>
<path d="M1472 1638 c-43 -21 -41 -86 4 -106 93 -43 198 34 134 98 -23 23 -98
27 -138 8z m93 -34 c21 -22 3 -44 -37 -44 -32 0 -47 23 -28 45 16 20 45 19 65
-1z"/>
<path d="M682 1588 c-7 -7 -12 -20 -12 -29 0 -11 -23 -25 -75 -45 -69 -26 -75
-31 -75 -57 0 -74 97 -137 210 -137 141 1 242 89 210 185 -13 39 -58 82 -97
91 -14 4 -42 1 -61 -6 -25 -9 -37 -9 -45 -1 -14 14 -40 14 -55 -1z"/>
<path d="M1125 1475 c-27 -13 -42 -24 -32 -24 23 -1 83 24 91 38 10 16 -2 13
-59 -14z"/>
<path d="M1682 1464 c-25 -11 -37 -12 -47 -4 -24 20 -60 8 -63 -20 -2 -22 -14
-30 -77 -54 -41 -16 -75 -34 -75 -40 0 -6 15 -23 34 -38 19 -15 40 -44 47 -63
11 -29 20 -37 54 -46 79 -20 76 -17 49 -46 -14 -15 -23 -31 -21 -37 2 -5 23
-16 47 -24 39 -13 44 -13 55 2 7 9 20 16 29 16 9 0 22 11 28 25 9 20 8 28 -6
44 -16 18 -15 20 26 42 89 50 112 131 56 195 -26 30 -86 67 -100 63 -2 0 -18
-7 -36 -15z"/>
<path d="M1107 1380 c-35 -22 -60 -57 -52 -70 9 -15 22 -12 63 14 20 14 49 28
65 31 32 8 35 20 8 35 -27 14 -51 11 -84 -10z"/>
<path d="M853 1289 c-39 -11 -67 -50 -58 -79 8 -26 55 -50 97 -50 59 0 109 51
88 90 -19 36 -76 53 -127 39z m65 -38 c8 -5 12 -17 10 -27 -4 -25 -59 -31 -78
-10 -25 31 30 61 68 37z"/>
<path d="M2075 1205 c-26 -11 -27 -13 -8 -14 27 -1 53 9 53 20 0 12 -9 11 -45
-6z"/>
<path d="M330 1142 c-26 -12 -36 -25 -38 -45 -7 -57 61 -91 132 -67 67 22 74
89 11 116 -45 18 -62 18 -105 -4z m90 -37 c24 -29 -20 -56 -64 -39 -16 6 -22
35 -9 47 12 13 60 7 73 -8z"/>
<path d="M662 1058 c-7 -7 -12 -20 -12 -29 0 -12 -24 -27 -80 -50 -90 -37 -97
-51 -57 -109 47 -71 170 -105 270 -76 134 39 181 144 101 228 -40 40 -82 52
-126 33 -32 -13 -37 -13 -48 0 -15 18 -32 19 -48 3z"/>
<path d="M1265 958 c-16 -6 -39 -17 -50 -24 -19 -14 -19 -14 5 -14 23 0 90 33
90 45 0 7 -10 5 -45 -7z"/>
<path d="M325 928 c-41 -22 -65 -52 -65 -80 0 -15 3 -28 6 -28 8 0 194 112
194 116 0 9 -117 2 -135 -8z"/>
<path d="M161 698 c-38 -25 -37 -47 4 -67 25 -12 35 -12 69 0 22 8 41 19 42
24 2 6 -16 22 -40 36 l-43 27 -32 -20z"/>
<path d="M116 579 c-55 -43 -13 -109 69 -109 80 0 122 64 73 110 -30 28 -106
28 -142 -1z m104 -24 c10 -12 10 -18 0 -30 -16 -20 -69 -20 -76 0 -14 36 50
62 76 30z"/>
</g>
</svg>
