<svg version="1.1" xmlns="http://www.w3.org/2000/svg" xmlns:xlink="http://www.w3.org/1999/xlink" width="2500" height="2500" viewBox="0,0,256,256"><g fill="none" fill-rule="none" stroke="none" stroke-width="none" stroke-linecap="none" stroke-linejoin="none" stroke-miterlimit="10" stroke-dasharray="" stroke-dashoffset="0" font-family="none" font-weight="none" font-size="none" text-anchor="none" style="mix-blend-mode: normal"><g transform="scale(0.1024,0.1024)"><path d="M1827.64844,1852.78125c5.96094,0 11.66016,-2.42578 15.80078,-6.71484c4.12891,-4.29297 6.35156,-10.08594 6.12109,-16.04297c-5.73047,-150.85938 -68.16016,-294.35938 -175.30859,-401.50391c-234.16016,-234.16016 -614.37109,-234.16016 -848.53125,0c-107.14453,107.14453 -169.58203,250.64453 -175.30469,401.50781c-0.22266,5.95313 1.98828,11.74219 6.125,16.03125c4.13281,4.28906 9.83594,6.71484 15.79297,6.71484c0,0.00781 0,0.00781 0,0.00781c12.26172,0 22.33203,-9.68359 22.80859,-21.9375c5.49609,-139.29687 63.24609,-271.75391 162.19922,-370.70312c216.70703,-216.71094 568.57813,-216.71094 785.28906,0c98.94922,98.94922 156.69922,231.40625 162.21094,370.70313c0.46875,12.24609 10.53906,21.92969 22.79688,21.92969c0,0.00781 0,0.00781 0,0.00781" fill="#e46464" fill-rule="evenodd" stroke="none" stroke-width="1" stroke-linecap="butt" stroke-linejoin="miter"></path><path transform="translate(0,2500) scale(0.1,-0.1)" d="M18276.48438,6472.1875c59.60938,0 116.60156,24.25781 158.00781,67.14844c41.28906,42.92969 63.51562,100.85937 61.21094,160.42969c-57.30469,1508.59375 -681.60156,2943.59375 -1753.08594,4015.03906c-2341.60156,2341.60156 -6143.71094,2341.60156 -8485.3125,0c-1071.44531,-1071.44531 -1695.82031,-2506.44531 -1753.04688,-4015.07813c-2.22656,-59.53125 19.88281,-117.42187 61.25,-160.3125c41.32813,-42.89062 98.35938,-67.14844 157.92969,-67.14844c0,-0.07812 0,-0.07812 0,-0.07812c122.61719,0 223.32031,96.83594 228.08594,219.375c54.96094,1392.96875 632.46094,2717.53906 1621.99219,3707.03125c2167.07031,2167.10938 5685.78125,2167.10938 7852.89063,0c989.49219,-989.49219 1566.99219,-2314.0625 1622.10938,-3707.03125c4.6875,-122.46094 105.39063,-219.29687 227.96875,-219.29687c0,-0.07812 0,-0.07812 0,-0.07812zM18276.48438,6472.1875" fill="none" fill-rule="nonzero" stroke="#e46464" stroke-width="200" stroke-linecap="round" stroke-linejoin="round"></path><path transform="translate(0,2500) scale(0.1,-0.1)" d="M12500,18527.8125c1517.8125,0 2750,-1232.22656 2750,-2750c0,-1517.69531 -1232.1875,-2750 -2750,-2750c-1517.8125,0 -2750,1232.30469 -2750,2750c0,1517.77344 1232.1875,2750 2750,2750zM12500,18527.8125" fill="none" fill-rule="nonzero" stroke="#e46464" stroke-width="600" stroke-linecap="round" stroke-linejoin="round"></path><path transform="translate(0,2500) scale(0.1,-0.1)" d="M12500,21500c4967.1875,0 9000,-4032.8125 9000,-9000c0,-4967.22656 -4032.8125,-9000 -9000,-9000c-4967.22656,0 -9000,4032.77344 -9000,9000c0,4967.1875 4032.77344,9000 9000,9000zM12500,21500" fill="none" fill-rule="nonzero" stroke="#e46464" stroke-width="600" stroke-linecap="round" stroke-linejoin="round"></path></g></g></svg>